<svg width="65" height="16" xmlns="http://www.w3.org/2000/svg">
 <g>
  <title>Layer 1</title>
  <path stroke="null" class="st0" d="m4.6,3.1l-3.6,0l0,4.1l2.4,2.2l0,-4l1.3,0c0.8,0 1.2,0.4 1.2,1l0,3c0,0.6 -0.4,1.1 -1.2,1.1l-3.7,0l0,2.3l3.6,0c1.9,0 3.7,-1 3.7,-3.2l0,-3.2c0,-2.3 -1.8,-3.3 -3.7,-3.3zm18.7,6.6l0,-3.4c0,-1.2 2.1,-1.5 2.8,-0.3l2,-0.8c-0.8,-1.7 -2.2,-2.2 -3.4,-2.2c-1.9,0 -3.8,1.1 -3.8,3.3l0,3.3c0,2.2 1.9,3.3 3.8,3.3c1.2,0 2.6,-0.6 3.4,-2.2l-2.1,-1c-0.5,1.5 -2.7,1.1 -2.7,0zm-6.5,-2.9c-0.7,-0.2 -1.2,-0.4 -1.3,-0.9c0,-1.1 1.8,-1.2 2.8,-0.1l1.6,-1.2c-1,-1.2 -2.1,-1.6 -3.3,-1.6c-1.8,0 -3.5,1 -3.5,2.9s1.4,2.8 2.9,3.1c0.8,0.1 1.7,0.4 1.6,1c-0.1,1 -2.2,1 -3.1,-0.2l-1.5,1.5c0.9,1.2 2.1,1.8 3.3,1.8c1.8,0 3.7,-1 3.8,-2.9c0.1,-2.5 -1.6,-3.1 -3.3,-3.4zm-7.2,6.1l2.4,0l0,-9.8l-2.4,0l0,9.8zm40.7,-9.8l-3.6,0l0,4.1l2.4,2.2l0,-4l1.3,0c0.8,0 1.2,0.4 1.2,1l0,3c0,0.6 -0.4,1.1 -1.2,1.1l-3.7,0l0,2.3l3.6,0c1.9,0 3.7,-1 3.7,-3.2l0,-3.2c0,-2.3 -1.8,-3.3 -3.7,-3.3zm-17.6,-0.1c-2,0 -4,1.1 -4,3.3l0,3.3c0,2.2 2,3.3 4,3.3s4,-1.1 4,-3.3l0,-3.3c0,-2.2 -2,-3.3 -4,-3.3zm1.6,6.7c0,0.7 -0.8,1.1 -1.5,1.1c-0.8,0 -1.6,-0.3 -1.6,-1.1l0,-3.4c0,-0.7 0.8,-1.1 1.5,-1.1c0.8,0 1.6,0.3 1.6,1.1l0,3.4zm11.1,-3.4c-0.1,-2.3 -1.6,-3.2 -3.6,-3.2l-3.8,0l0,9.7l2.4,0l0,-3l0.4,0l2.2,3.1l3,0l-2.6,-3.3c1.2,-0.4 2,-1.5 2,-3.3zm-3.6,1.4l-1.4,0l0,-2.3l1.4,0c1.6,0 1.6,2.3 0,2.3zm13.5,-0.9l9.7,0l0,2.1l-9.7,0l0,-2.1z" fill="#fff" id="svg_1"/>
  <path d="m56.31671,6.99295c0,0.10071 0.03854,0.20908 0,0.30211c-0.0545,0.13158 -0.1007,0.40282 -0.1007,0.50352c0,0.30211 -0.04897,0.38507 -0.1007,0.60423c-0.02314,0.09801 0,0.20141 0,0.30211c0,0.10071 0,0.20141 0,0.30211c0,0.20141 0.07121,0.33161 0,0.40282c-0.07121,0.07121 -0.10071,-0.1007 -0.10071,-0.30211c0,-0.20141 0,-0.50352 0,-0.90634c0,-0.20141 0,-0.40282 0,-0.60423c0,-0.20141 0.04897,-0.38507 0.10071,-0.60423c0.02314,-0.09801 0,-0.20141 0,-0.1007c0,0.1007 0.0462,0.27124 0.1007,0.40282c0.11561,0.27912 0,0.40282 0,0.60423c0,0.20141 0,0.30211 0,0.50352c0,0.10071 0,0.20141 0,0.30211c0,0.10071 0,0.20141 0,0.30211c0,0.10071 0,0.20141 0,0.30212c0,0.1007 0,0.20141 0,0.1007c0,-0.20141 0.11237,-0.60059 0.20141,-0.90634c0.11609,-0.39866 0.24657,-0.78607 0.40282,-1.20846c0.14406,-0.38943 0.22057,-0.79371 0.40282,-1.10775c0.11303,-0.19476 0.30211,-0.40282 0.30211,-0.50352c0,-0.1007 0.1007,-0.1007 0.1007,0c0,0.10071 0,0.30211 0,0.40282c0,0.30211 0.03691,0.50579 0,0.80564c-0.05073,0.41211 -0.08875,0.70747 -0.20141,1.20846c-0.09109,0.4051 -0.18602,0.9105 -0.30212,1.30916c-0.08904,0.30576 -0.07954,0.61213 -0.20141,0.90634c-0.08617,0.20804 -0.13297,0.0981 -0.1007,-0.10071c0.05101,-0.31434 0.05149,-0.60725 0.1007,-1.00705c0.05073,-0.41211 0.1007,-0.80564 0.20141,-1.20846c0.10071,-0.40282 0.18603,-0.8098 0.30212,-1.20846c0.08904,-0.30576 0.2511,-0.592 0.30211,-0.90634c0.01613,-0.0994 0.10071,-0.40282 0.10071,-0.50352c0,-0.10071 0,-0.20141 0,-0.10071c0,0.10071 0.02461,0.30362 0,0.50352c-0.05074,0.41211 -0.20141,0.80564 -0.30212,1.20846c-0.1007,0.40282 -0.1007,0.80564 -0.20141,1.10775c-0.1007,0.30211 -0.12434,0.51886 -0.20141,0.70493c-0.0545,0.13158 -0.1007,0.20141 -0.1007,0.10071c0,-0.10071 0,-0.30212 0,-0.50352c0,-0.20141 -0.1007,-0.50352 -0.1007,-0.80564c0,-0.20141 0,-0.50352 0,-0.80564c0,-0.30211 -0.1007,-0.50352 -0.1007,-0.70493c0,-0.1007 0,-0.20141 0,-0.1007c0,0.1007 -0.04969,0.18918 -0.1007,0.50352c-0.03226,0.19881 -0.01316,0.51649 -0.10071,0.80564c-0.10522,0.34752 -0.21308,0.49988 -0.30211,0.80564c-0.11609,0.39866 -0.18025,0.61213 -0.30212,0.90634c-0.08617,0.20804 -0.06217,0.41049 -0.1007,0.50352c-0.0545,0.13158 -0.1007,0.20141 -0.1007,0.10071c0,-0.10071 0,-0.40282 0,-0.50352c0,-0.40282 0,-0.60423 0,-1.00705c0,-0.20141 0,-0.50352 0,-0.90634c0,-0.1007 0,-0.40282 0,-0.60423c0,-0.10071 0,-0.30211 0,-0.40282c0,-0.10071 0,-0.20141 0,-0.30211c0,-0.1007 0,0 0,0.10071c0,0.1007 0,0.30211 0,0.50352c0,0.20141 0,0.50352 0,0.80564c0,0.20141 0,0.60423 0,0.90634c0,0.30212 0,0.50352 0,0.80564c0,0.30212 0,0.50352 0,0.70493c0,0.10071 0,0.20141 0,0.30212c0,0.20141 0,0.30211 0,0.40282c0,0.1007 -0.09304,0.26358 0,0.30211c0.13158,0.0545 0.1007,-0.30211 0.1007,-0.60423c0,-0.30211 -0.04961,-0.60668 0,-1.10775c0.0506,-0.511 0.15988,-0.90806 0.20141,-1.40987c0.05053,-0.61048 0.08572,-1.12122 0.20141,-1.61128c0.10347,-0.43832 0.25038,-0.78789 0.30211,-1.00705c0.04628,-0.19602 0.0295,-0.2309 0.10071,-0.30211c0.07121,-0.07121 0,0 0,0.1007c0,0.20141 -0.02461,0.50503 0,0.70493c0.05073,0.41211 0.20141,0.80564 0.20141,1.40987c0,0.40282 0,0.90634 0,1.51057c0,0.50352 0,1.00705 0,1.51057c0,0.50352 0,0.90634 0,1.30916c0,0.20141 -0.03854,0.41049 0,0.50352c0.0545,0.13158 0.1007,0.20141 0.1007,0.10071c0,-0.10071 0,-0.30211 0,-0.60423c0,-0.40282 -0.01195,-0.80818 0.1007,-1.30916c0.09109,-0.4051 0.05109,-0.90879 0.10071,-1.40987c0.0506,-0.511 0.16172,-1.00901 0.20141,-1.40987c0.0506,-0.511 0.2511,-0.89411 0.30211,-1.20846c0.03226,-0.19881 -0.03087,-0.45732 0.10071,-0.40282c0.09304,0.03854 0,0.20141 0,0.60423c0,0.30211 0.1007,0.80564 0.1007,1.20846c0,0.50352 0.1007,1.00705 0.1007,1.51057c0,0.60423 0,1.00705 0,1.40987c0,0.40282 -0.20141,0.70493 0,0.70493c0.1007,0 0.04969,-0.18918 0.1007,-0.50352c0.04839,-0.29821 0.01615,-0.80194 0.1007,-1.20846c0.12474,-0.59973 0.10774,-1.10662 0.20141,-1.71198c0.10889,-0.70372 0.13988,-1.21223 0.20141,-1.71198c0.05073,-0.41211 0.06216,-0.6119 0.1007,-0.70493c0.0545,-0.13158 0.1007,0 0.1007,0.10071c0,0.1007 0,0.40282 0,0.70493c0,0.40282 0,0.80564 0,1.20846c0,0.40282 0,0.80564 0,1.30916c0,0.30211 0.10071,0.70493 0.10071,1.10775c0,0.30211 0,0.50352 0,0.70493c0,0.10071 0.1007,0.10071 0.1007,-0.10071c0,-0.40282 0.04997,-0.59494 0.1007,-1.00705c0.07383,-0.5997 -0.04984,-1.10981 0,-1.71198c0.05053,-0.61048 0.03918,-1.11153 0.1007,-1.61128c0.05073,-0.41211 0.1504,-0.79341 0.20141,-1.10775c0.03226,-0.19881 0,-0.30211 0,-0.20141c0,0.1007 0,0.30211 0,0.70493c0,0.40282 0.05011,0.89887 0.1007,1.40987c0.05954,0.60129 0.1007,1.20846 0.1007,1.81269c0,0.60423 0.1007,1.20846 0.1007,1.81269c0,0.60423 0,1.00705 0,1.40987c0,0.20141 0,0.40282 0,0.30212c0,-0.10071 0,-0.30212 0,-0.60423c0,-0.40282 0,-1.00705 0,-1.40987c0,-0.50352 0.1007,-1.10775 0.1007,-1.61128c0,-0.60423 0.04997,-1.09847 0.1007,-1.51057c0.04922,-0.3998 0.1007,-0.60423 0,-0.60423c-0.1007,0 0,0.20141 0,0.40282c0,0.1007 -0.03691,0.50579 0,0.80564c0.05074,0.41211 0.10071,0.90634 0.10071,1.40987c0,0.70493 0,1.30916 0,1.91339c0,0.50352 0,1.00705 0,1.30916c0,0.20141 0.0295,0.37332 0.1007,0.30212c0.07121,-0.07121 0.04969,-0.28989 0.1007,-0.60423c0.06453,-0.39762 0,-0.90634 0,-1.51057c0,-0.50352 -0.04984,-1.10981 0,-1.71198c0.05053,-0.61048 0.1007,-1.30916 0.1007,-1.81269c0,-0.50352 0,-0.90634 0,-1.30916c0,-0.30211 0,-0.50352 0,-0.60423c0,-0.1007 0,0 0,0.1007c0,0.10071 0,0.20141 0,0.50352c0,0.30211 0.04922,0.70795 0,1.10775c-0.05073,0.41211 -0.1007,1.00705 -0.1007,1.40987c0,0.50352 0,1.00705 -0.1007,1.51057c-0.1007,0.50352 -0.1007,0.90634 -0.1007,1.10775c0,0.20141 0,0.30212 0,0.20141c0,-0.10071 0.04969,-0.39059 0.1007,-0.70493c0.06453,-0.39762 0.05787,-0.90786 0.1007,-1.51057c0.05048,-0.7103 0.20009,-1.38541 0.30212,-2.0141c0.11292,-0.69583 0.08875,-1.3117 0.20141,-1.81269c0.09109,-0.4051 0.15068,-0.69565 0.20141,-1.10775c0.01231,-0.09995 0.1007,-0.30211 0,-0.30211c-0.1007,0 0.01897,0.19574 0.1007,0.50352c0.1318,0.49629 0.17012,1.10873 0.20141,1.61128c0.05045,0.81034 0.20141,1.51057 0.20141,2.21551c0,0.70493 0.1007,1.30916 0.1007,1.91339c0,0.50352 0,1.00705 0,1.40987c0,0.30211 -0.14242,0.46181 0,0.60423c0.07121,0.07121 0.20141,0 0.20141,-0.10071c0,-0.10071 0,-0.30211 0,-0.70493c0,-0.40282 0,-0.90634 0,-1.30916c0,-0.50352 0,-0.90634 0,-1.40987c0,-0.60423 0,-1.10775 0,-1.51057c0,-0.30211 0,-0.60423 0,-0.80564c0,-0.1007 0,-0.20141 0,-0.1007c0,0.20141 0,0.40282 0,0.70493c0,0.30211 -0.04997,0.69565 -0.1007,1.10775c-0.04922,0.3998 -0.05011,0.69746 -0.10071,1.20846c-0.0397,0.40086 0.05345,0.8363 -0.1007,1.20846c-0.109,0.26315 -0.24761,0.47265 -0.30211,0.60423c-0.07708,0.18608 0,0.1007 0,0c0,-0.10071 0,-0.30212 0,-0.70494c0,-0.40282 -0.05011,-0.69746 -0.10071,-1.20846c-0.0397,-0.40086 -0.11032,-0.90406 -0.20141,-1.30916c-0.11266,-0.50099 -0.15068,-0.99776 -0.20141,-1.40987c-0.04922,-0.3998 -0.1007,-0.70493 -0.1007,-1.00705c0,-0.30211 -0.04897,-0.38507 -0.10071,-0.60423c-0.02314,-0.09801 0,0 0,0.10071c0,0.1007 -0.1007,0.40282 -0.1007,0.70493c0,0.30211 -0.04969,0.592 -0.1007,0.90634c-0.04839,0.29821 -0.04997,0.69565 -0.1007,1.10775c-0.04922,0.3998 0,0.80564 -0.1007,1.20846c-0.10071,0.40282 -0.132,0.81372 -0.20141,1.10775c-0.05173,0.21916 -0.1007,0.50352 -0.1007,0.60423c0,0.10071 0.0462,0.03087 0.1007,-0.10071c0.03854,-0.09304 0,-0.30212 0.1007,-0.50352c0.10071,-0.20141 0.10071,-0.60423 0.20141,-0.90634c0.1007,-0.30211 0.18602,-0.7091 0.30211,-1.10775c0.08904,-0.30576 0.20141,-0.50352 0.20141,-0.70493c0,-0.10071 0.1007,-0.30211 0.1007,-0.20141c0,0.10071 0,0.20141 0,0.40282c0,0.10071 0,0.20141 0,0.40282c0,0.20141 -0.04969,0.49129 -0.1007,0.80564c-0.04839,0.29821 -0.12977,0.59096 -0.30212,1.00705c-0.12187,0.29422 -0.24329,0.68087 -0.40282,1.00705c-0.13992,0.28607 -0.25038,0.48577 -0.30211,0.70493c-0.02314,0.09801 -0.1007,0.10071 -0.1007,0c0,-0.10071 -0.03691,-0.30438 0,-0.60423c0.05073,-0.41211 0.09187,-0.80873 0.20141,-1.10775c0.18653,-0.50922 0.3361,-0.93756 0.50352,-1.20846c0.22462,-0.36345 0.50352,-0.60423 0.70493,-0.80564c0.30212,-0.30212 0.37186,-0.42155 0.50352,-0.60423c0.08327,-0.11554 0.20141,-0.1007 0.20141,0c0,0.10071 0,0.20141 0,0.50352c0,0.20141 0,0.40282 0,0.70493c0,0.30211 -0.11238,0.60059 -0.20141,0.90634c-0.11609,0.39866 -0.14259,0.68087 -0.30211,1.00705c-0.13992,0.28607 -0.10071,0.50352 -0.20141,0.70493c-0.1007,0.20141 -0.17191,0.27262 -0.1007,0.20141c0.07121,-0.07121 0,-0.20141 0,-0.30212c0,-0.1007 0.05231,-0.30602 0.1007,-0.60423c0.05101,-0.31434 0.20141,-0.60423 0.40282,-0.90634c0.20141,-0.30211 0.50352,-0.70494 0.70493,-0.90634c0.20141,-0.20141 0.32085,-0.37186 0.50352,-0.50352c0.11554,-0.08327 0.1007,0 0.1007,0.10071c0,0.20141 -0.11523,0.49689 -0.20141,0.70493c-0.12187,0.29422 -0.20141,0.50353 -0.30211,0.60423c-0.10071,0.10071 -0.30212,0.30212 -0.20141,0.30212c0.1007,0 0,-0.20141 0,-0.40282c0,-0.20141 0.15806,-0.51692 0.30212,-0.90634c0.07813,-0.2112 0.29022,-0.61156 0.60423,-1.10775c0.19416,-0.30682 0.53343,-0.66605 0.80564,-0.90634c0.16882,-0.14903 0.43232,-0.27262 0.50353,-0.20141c0.07121,0.07121 0,0.20141 0,0.50352c0,0.30211 -0.06101,0.70689 -0.10071,1.10775c-0.0506,0.511 -0.21102,1.00477 -0.30212,1.40987c-0.11266,0.50099 -0.13414,0.82874 -0.30211,1.20846c-0.14689,0.33206 -0.23091,0.53302 -0.30212,0.60423c-0.07121,0.07121 -0.20141,0 -0.20141,-0.10071c0,-0.20141 0,-0.40282 0,-0.70493c0,-0.40282 0,-0.80564 0,-1.20846c0,-0.50352 0.05917,-1.00876 0.1007,-1.51057c0.05053,-0.61048 0.25876,-1.02044 0.40282,-1.40987c0.07813,-0.2112 0.20907,-0.36428 0.30211,-0.40282c0.13158,-0.0545 0.17828,-0.09801 0.20141,0c0.05174,0.21916 0.1007,0.40282 0.1007,0.60423c0,0.30211 0.06452,0.60943 0,1.00705c-0.05101,0.31434 -0.24657,0.68536 -0.40282,1.10775c-0.14406,0.38943 -0.19824,0.64573 -0.40282,1.00705c-0.14034,0.24787 -0.37195,0.44902 -0.50352,0.50352c-0.09304,0.03854 -0.23091,0.07121 -0.30212,0c-0.07121,-0.07121 -0.04628,-0.2068 0,-0.40282c0.05173,-0.21916 0.15302,-0.60813 0.20141,-0.90634c0.05101,-0.31435 0.3361,-0.73615 0.50352,-1.00705c0.22462,-0.36345 0.59097,-0.73399 1.00705,-0.90634c0.29421,-0.12187 0.50352,-0.20141 0.70493,-0.20141c0.1007,0 0.1007,0.10071 0.1007,0.30211c0,0.20141 0,0.50352 0,0.80564c0,0.40282 -0.08532,0.91051 -0.20141,1.30916c-0.17808,0.61151 -0.32166,1.09653 -0.60423,1.61128c-0.21672,0.39479 -0.51482,0.89812 -0.80564,1.30916c-0.20972,0.29641 -0.34108,0.49523 -0.60423,0.60423c-0.09304,0.03854 -0.10071,-0.1007 -0.10071,-0.40282c0,-0.20141 -0.04997,-0.49424 -0.1007,-0.90634c-0.03691,-0.29985 0,-0.70493 0,-1.20846c0,-0.40282 0.14759,-0.99074 0.30212,-1.51057c0.14632,-0.49221 0.30211,-1.00705 0.50352,-1.30916c0.20141,-0.30211 0.42155,-0.47256 0.60423,-0.60423c0.11554,-0.08327 0.27124,-0.14691 0.40282,-0.20141c0.18608,-0.07707 0.34832,-0.03087 0.40282,0.10071c0.03854,0.09304 0.1504,0.18918 0.20141,0.50352c0.03226,0.19881 0,0.40282 0,0.80564c0,0.30211 0.06452,0.50873 0,0.90634c-0.05101,0.31434 -0.20141,0.50352 -0.40282,0.80564c-0.20141,0.30212 -0.49159,0.62339 -0.80564,0.80564c-0.38952,0.22605 -0.70493,0.30211 -1.10775,0.40282c-0.40282,0.10071 -0.80564,0.20141 -1.10775,0.20141c-0.30211,0 -0.50352,0 -0.50352,-0.10071c0,-0.10071 0,-0.30211 0,-0.70493c0,-0.40282 0.15908,-0.82144 0.40282,-1.40987c0.25852,-0.62413 0.51482,-1.20023 0.80564,-1.61128c0.41943,-0.59282 0.70493,-1.00705 1.00705,-1.30916c0.20141,-0.20141 0.30211,-0.40282 0.40282,-0.40282c0.1007,0 0.18528,0.10201 0.20141,0.20141c0.05101,0.31434 0.25111,0.49129 0.30212,0.80564c0.06453,0.39762 0,0.70493 0,1.00705c0,0.20141 0.03226,0.50612 0,0.70493c-0.05101,0.31435 -0.27333,0.52484 -0.50353,0.80564c-0.18058,0.22027 -0.51143,0.28095 -0.80564,0.40282c-0.20805,0.08617 -0.27124,0.25591 -0.40282,0.20141c-0.09304,-0.03854 0,-0.20141 0,-0.30211c0,-0.30211 0,-0.60423 0,-1.00705c0,-0.40282 -0.04562,-0.91766 0.1007,-1.40987c0.15453,-0.51983 0.27747,-1.02034 0.50352,-1.40987c0.18225,-0.31405 0.27124,-0.65043 0.40282,-0.70493c0.09304,-0.03854 0.1007,0.10071 0.1007,0.20141c0,0.10071 0,0.40282 -0.1007,0.70493c-0.1007,0.30211 -0.13414,0.52662 -0.30212,0.90634c-0.14689,0.33206 -0.37452,0.63547 -0.70493,0.90634c-0.2808,0.2302 -0.52225,0.37186 -0.70493,0.50352c-0.11554,0.08327 0.0295,0.17191 0.1007,0.10071c0.07121,-0.07121 0,-0.20141 0,-0.30211c0,-0.1007 0,-0.20141 0,-0.30211c0,-0.10071 0.0462,-0.27124 0.1007,-0.40282c0.03854,-0.09304 0.07104,-0.13557 0.30212,-0.30211c0.18268,-0.13167 0.38507,-0.25038 0.60423,-0.30211c0.19602,-0.04627 0.37195,-0.25591 0.50352,-0.20141c0.09304,0.03854 0.01886,0.22224 -0.20141,0.40282c-0.2808,0.2302 -0.62027,0.26291 -0.90634,0.40282c-0.32618,0.15953 -0.60423,0.30211 -0.90635,0.30211c-0.1007,0 -0.20141,0 -0.20141,-0.20141c0,-0.20141 0,-0.50352 0,-0.80564c0,-0.20141 -0.02314,-0.50622 0,-0.60423c0.05173,-0.21916 0.20141,-0.30212 0.40282,-0.40282c0.20141,-0.10071 0.49988,-0.21308 0.80564,-0.30211c0.39866,-0.11609 0.70493,-0.10071 0.80564,-0.10071c0.20141,0 0.30212,0 0.40282,0c0.1007,0 0.12433,0.01533 0.20141,0.20141c0.0545,0.13158 0.10071,0.20141 0.10071,0.40282c0,0.10071 0.07708,0.21674 0,0.40282c-0.0545,0.13158 -0.20141,0.30211 -0.40282,0.40282c-0.20141,0.1007 -0.30628,0.18603 -0.70493,0.30211c-0.30576,0.08904 -0.60813,0.15302 -0.90635,0.20141c-0.31435,0.05101 -0.50352,0.10071 -0.60423,0.10071c-0.1007,0 -0.1007,-0.10071 -0.1007,-0.20141c0,-0.10071 -0.11562,-0.22441 0,-0.50352c0.0545,-0.13158 0.28167,-0.22724 0.40282,-0.30211c0.2709,-0.16742 0.51075,-0.17032 1.00705,-0.30211c0.30779,-0.08174 0.61501,-0.10886 1.00705,-0.20141c0.21916,-0.05174 0.50352,-0.10071 0.80564,-0.10071c0.20141,0 0.40282,0 0.50352,0c0.20141,0 0.29445,-0.03854 0.20141,0c-0.13158,0.0545 -0.30212,0.20141 -0.60423,0.30211c-0.30211,0.1007 -0.60676,0.18946 -1.10775,0.30211c-0.4051,0.09109 -0.80818,0.18946 -1.30917,0.30211c-0.4051,0.09109 -0.81102,0.05443 -1.00705,0.10071c-0.21916,0.05174 -0.39515,0.13924 -0.30211,0.1007c0.13158,-0.0545 0.29283,-0.25138 0.70493,-0.30211c0.29985,-0.03691 0.60423,-0.10071 1.00705,-0.10071c0.30212,0 0.70493,0 1.10775,0c0.30212,0 0.60423,0 0.80564,0c0.1007,0 0.19374,-0.03854 0.1007,0c-0.13158,0.0545 -0.19162,0.12328 -0.40282,0.20141c-0.38943,0.14406 -0.63334,0.10561 -1.10775,0.30211c-0.33546,0.13895 -0.71014,0.23759 -1.10775,0.30211c-0.31435,0.05101 -0.50352,0.10071 -0.60423,0.20141l0,-0.1007l0.20141,0l0.1007,-0.10071" id="svg_2" stroke="#fff" fill="none"/>
 </g>

</svg>
